YT-DLP DARK DOWNLOADER
Fecha: 2025-10-07T14:59:20-07:00
Cmd: "C:\laragon\www\b\2024-12-16\_host\vik\vik_app_games\rhoodm\yt-dlp\yt-dlp.exe" --no-part --restrict-filenames --hls-prefer-ffmpeg --merge-output-format mp4 --ffmpeg-location "C:\laragon\www\b\2024-12-16\_host\vik\vik_app_games\rhoodm\yt-dlp\ffmpeg.exe" -o "C:\laragon\www\b\2024-12-16\_host\vik\vik_app_games\rhoodm\output\oakley5.mp4" "https://media.ccdn.cloud/luxottica-csc/videos/9bc30fbd-9b50-4521-9d01-ef03d41b4cf0/1080p.m3u8"
---
[generic] Extracting URL: https://media.ccdn.cloud/luxottica-csc/videos/9bc30fbd-9b50-4521-9d01-ef03d41b4cf0/1080p.m3u8
[generic] 1080p: Downloading webpage
[generic] 1080p: Downloading m3u8 information
[generic] 1080p: Checking m3u8 live status
[info] 1080p: Downloading 1 format(s): 0
[download] Destination: C:\laragon\www\b\2024-12-16\_host\vik\vik_app_games\rhoodm\output\oakley5.mp4
mime type is not rfc8216 compliant
[hls @ 000002252a0bfa40] Skip ('#EXT-X-VERSION:3')
[hls @ 000002252a0bfa40] Opening 'https://media.ccdn.cloud/luxottica-csc/videos/9bc30fbd-9b50-4521-9d01-ef03d41b4cf0/1080p-1.ts' for reading
[hls @ 000002252a0bfa40] Opening 'https://media.ccdn.cloud/luxottica-csc/videos/9bc30fbd-9b50-4521-9d01-ef03d41b4cf0/1080p-2.ts' for reading
Input #0, hls, from 'https://media.ccdn.cloud/luxottica-csc/videos/9bc30fbd-9b50-4521-9d01-ef03d41b4cf0/1080p.m3u8':
  Duration: 00:01:22.25, start: 0.700000, bitrate: 0 kb/s
  Program 0 
    Metadata:
      variant_bitrate : 0
  Stream #0:0: Video: h264 (Constrained Baseline) ([27][0][0][0] / 0x001B), yuv420p(tv, bt709), 1920x1080 [SAR 1:1 DAR 16:9], 24 fps, 24 tbr, 90k tbn
      Metadata:
        variant_bitrate : 0
  Stream #0:1: Audio: aac (LC) ([15][0][0][0] / 0x000F), 48000 Hz, stereo, fltp
      Metadata:
        variant_bitrate : 0
Stream mapping:
  Stream #0:0 -> #0:0 (copy)
  Stream #0:1 -> #0:1 (copy)
Output #0, mp4, to 'file:C:\laragon\www\b\2024-12-16\_host\vik\vik_app_games\rhoodm\output\oakley5.mp4':
  Metadata:
    encoder         : Lavf61.7.100
  Stream #0:0: Video: h264 (Constrained Baseline) (avc1 / 0x31637661), yuv420p(tv, bt709), 1920x1080 [SAR 1:1 DAR 16:9], q=2-31, 24 fps, 24 tbr, 90k tbn
      Metadata:
        variant_bitrate : 0
  Stream #0:1: Audio: aac (LC) (mp4a / 0x6134706D), 48000 Hz, stereo, fltp
      Metadata:
        variant_bitrate : 0
Press [q] to stop, [?] for help
[https @ 000002252a6fbc00] Opening 'https://media.ccdn.cloud/luxottica-csc/videos/9bc30fbd-9b50-4521-9d01-ef03d41b4cf0/1080p-3.ts' for reading
frame=  191 fps=0.0 q=-1.0 size=    1536KiB time=00:00:07.95 bitrate=1581.1kbits/s speed=15.3x    [https @ 000002252a94f6c0] Opening 'https://media.ccdn.cloud/luxottica-csc/videos/9bc30fbd-9b50-4521-9d01-ef03d41b4cf0/1080p-4.ts' for reading
[https @ 000002252a6fbc00] Opening 'https://media.ccdn.cloud/luxottica-csc/videos/9bc30fbd-9b50-4521-9d01-ef03d41b4cf0/1080p-5.ts' for reading
frame=  462 fps=452 q=-1.0 size=    5120KiB time=00:00:19.25 bitrate=2178.9kbits/s speed=18.8x    [https @ 000002252a94f6c0] Opening 'https://media.ccdn.cloud/luxottica-csc/videos/9bc30fbd-9b50-4521-9d01-ef03d41b4cf0/1080p-6.ts' for reading
[https @ 000002252a6fbc00] Opening 'https://media.ccdn.cloud/luxottica-csc/videos/9bc30fbd-9b50-4521-9d01-ef03d41b4cf0/1080p-7.ts' for reading
[https @ 000002252a94f6c0] Opening 'https://media.ccdn.cloud/luxottica-csc/videos/9bc30fbd-9b50-4521-9d01-ef03d41b4cf0/1080p-8.ts' for reading
[https @ 000002252a6fbc00] Opening 'https://media.ccdn.cloud/luxottica-csc/videos/9bc30fbd-9b50-4521-9d01-ef03d41b4cf0/1080p-9.ts' for reading
frame= 1041 fps=675 q=-1.0 size=   10496KiB time=00:00:43.37 bitrate=1982.3kbits/s speed=28.1x    [https @ 000002252a94f6c0] Opening 'https://media.ccdn.cloud/luxottica-csc/videos/9bc30fbd-9b50-4521-9d01-ef03d41b4cf0/1080p-10.ts' for reading
[https @ 000002252a6fbc00] Opening 'https://media.ccdn.cloud/luxottica-csc/videos/9bc30fbd-9b50-4521-9d01-ef03d41b4cf0/1080p-11.ts' for reading
[https @ 000002252a94f6c0] Opening 'https://media.ccdn.cloud/luxottica-csc/videos/9bc30fbd-9b50-4521-9d01-ef03d41b4cf0/1080p-12.ts' for reading
frame= 1439 fps=697 q=-1.0 size=   16384KiB time=00:00:59.95 bitrate=2238.5kbits/s speed=  29x    [https @ 000002252a6fbc00] Opening 'https://media.ccdn.cloud/luxottica-csc/videos/9bc30fbd-9b50-4521-9d01-ef03d41b4cf0/1080p-13.ts' for reading
[https @ 000002252a94f6c0] Opening 'https://media.ccdn.cloud/luxottica-csc/videos/9bc30fbd-9b50-4521-9d01-ef03d41b4cf0/1080p-14.ts' for reading
[out#0/mp4 @ 000002252a952640] video:20499KiB audio:669KiB subtitle:0KiB other streams:0KiB global headers:0KiB muxing overhead: 0.082604%
frame= 1974 fps=791 q=-1.0 Lsize=   21185KiB time=00:01:22.24 bitrate=2110.3kbits/s speed=32.9x    
[download] 100% of   20.69MiB in 00:00:02 at 7.62MiB/s
